<svg xmlns="http://www.w3.org/2000/svg" width="64" height="64" viewBox="0 0 32 32">
  <metadata><?xpacket begin="﻿" id="W5M0MpCehiHzreSzNTczkc9d"?>
<x:xmpmeta xmlns:x="adobe:ns:meta/" x:xmptk="Adobe XMP Core 5.6-c142 79.160924, 2017/07/13-01:06:39        ">
   <rdf:RDF xmlns:rdf="http://www.w3.org/1999/02/22-rdf-syntax-ns#">
      <rdf:Description rdf:about=""/>
   </rdf:RDF>
</x:xmpmeta>
                                                                                                    
                                                                                                    
                                                                                                    
                                                                                                    
                                                                                                    
                                                                                                    
                                                                                                    
                                                                                                    
                                                                                                    
                                                                                                    
                                                                                                    
                                                                                                    
                                                                                                    
                                                                                                    
                                                                                                    
                                                                                                    
                                                                                                    
                                                                                                    
                                                                                                    
                                                                                                    
                           
<?xpacket end="w"?></metadata>
<defs>
    <style>
      .cls-1 {
        fill: #0023ff;
        fill-rule: evenodd;
      }
    </style>
  </defs>
  <path id="Add" class="cls-1" d="M16,32A16,16,0,1,1,32,16,16,16,0,0,1,16,32ZM16,3A13,13,0,1,0,29,16,13.015,13.015,0,0,0,16,3Zm5,15H18v3a2,2,0,0,1-4,0V18H11a2,2,0,0,1,0-4h3V11a2,2,0,0,1,4,0v3h3A2,2,0,1,1,21,18Z"/>
</svg>
