<svg xmlns="http://www.w3.org/2000/svg" width="36" height="32" viewBox="0 0 36 32">
  <metadata><?xpacket begin="﻿" id="W5M0MpCehiHzreSzNTczkc9d"?>
<x:xmpmeta xmlns:x="adobe:ns:meta/" x:xmptk="Adobe XMP Core 5.6-c138 79.159824, 2016/09/14-01:09:01        ">
   <rdf:RDF xmlns:rdf="http://www.w3.org/1999/02/22-rdf-syntax-ns#">
      <rdf:Description rdf:about=""/>
   </rdf:RDF>
</x:xmpmeta>
                                                                                                    
                                                                                                    
                                                                                                    
                                                                                                    
                                                                                                    
                                                                                                    
                                                                                                    
                                                                                                    
                                                                                                    
                                                                                                    
                                                                                                    
                                                                                                    
                                                                                                    
                                                                                                    
                                                                                                    
                                                                                                    
                                                                                                    
                                                                                                    
                                                                                                    
                                                                                                    
                           
<?xpacket end="w"?></metadata>
<defs>
    <style>
      .cls-1 {
        fill: #d8d8d8;
        fill-rule: evenodd;
      }
    </style>
  </defs>
  <path id="_-e-Basket" data-name="-e-Basket" class="cls-1" d="M1111,1374h-5.09a1.55,1.55,0,0,0-.14-0.29l-5-8a1.474,1.474,0,0,0-1.27-.71,1.5,1.5,0,0,0-1.5,1.5,1.433,1.433,0,0,0,.23.79l4.19,6.71h-12.84l4.19-6.71a1.433,1.433,0,0,0,.23-0.79,1.5,1.5,0,0,0-1.5-1.5,1.474,1.474,0,0,0-1.27.71l-5,8a1.076,1.076,0,0,0-.13.29H1081a3,3,0,0,0-3,3v2a2.99,2.99,0,0,0,2.32,2.91l3.8,12.94A3.012,3.012,0,0,0,1087,1397h18a3.012,3.012,0,0,0,2.88-2.15l3.8-12.94A2.99,2.99,0,0,0,1114,1379v-2A3,3,0,0,0,1111,1374Zm-30,3h30v2h-30v-2Zm24,17h-18l-3.53-12h25.06Z" transform="translate(-1078 -1365)"/>
</svg>
