<svg xmlns="http://www.w3.org/2000/svg" width="26" height="31.97" viewBox="0 0 26 31.97">
  <metadata><?xpacket begin="﻿" id="W5M0MpCehiHzreSzNTczkc9d"?>
<x:xmpmeta xmlns:x="adobe:ns:meta/" x:xmptk="Adobe XMP Core 5.6-c138 79.159824, 2016/09/14-01:09:01        ">
   <rdf:RDF xmlns:rdf="http://www.w3.org/1999/02/22-rdf-syntax-ns#">
      <rdf:Description rdf:about=""/>
   </rdf:RDF>
</x:xmpmeta>
                                                                                                    
                                                                                                    
                                                                                                    
                                                                                                    
                                                                                                    
                                                                                                    
                                                                                                    
                                                                                                    
                                                                                                    
                                                                                                    
                                                                                                    
                                                                                                    
                                                                                                    
                                                                                                    
                                                                                                    
                                                                                                    
                                                                                                    
                                                                                                    
                                                                                                    
                                                                                                    
                           
<?xpacket end="w"?></metadata>
<defs>
    <style>
      .cls-1 {
        fill: #d8d8d8;
        fill-rule: evenodd;
      }
    </style>
  </defs>
  <path id="_-e-Home" data-name="-e-Home" class="cls-1" d="M1096,1252.74l10,10V1278h-5v-7a2.006,2.006,0,0,0-2-2h-6a2.006,2.006,0,0,0-2,2v7h-5v-15.26l10-10m0.88-3.36a1.256,1.256,0,0,0-1.76,0l-11.53,11.53a2.006,2.006,0,0,0-.59,1.42V1279a2.006,2.006,0,0,0,2,2h7a2.006,2.006,0,0,0,2-2v-7h4v7a2.006,2.006,0,0,0,2,2h7a2.006,2.006,0,0,0,2-2v-16.67a2.006,2.006,0,0,0-.59-1.42Z" transform="translate(-1083 -1249.03)"/>
</svg>
