<svg xmlns="http://www.w3.org/2000/svg" width="27" height="32" viewBox="0 0 27 32">
  <metadata><?xpacket begin="﻿" id="W5M0MpCehiHzreSzNTczkc9d"?>
<x:xmpmeta xmlns:x="adobe:ns:meta/" x:xmptk="Adobe XMP Core 5.6-c138 79.159824, 2016/09/14-01:09:01        ">
   <rdf:RDF xmlns:rdf="http://www.w3.org/1999/02/22-rdf-syntax-ns#">
      <rdf:Description rdf:about=""/>
   </rdf:RDF>
</x:xmpmeta>
                                                                                                    
                                                                                                    
                                                                                                    
                                                                                                    
           w                                                                                         
                                                                                                    
                                                                                                    
                                                                                                    
                                                                                                    
                                                                                                    
                                                                                                    
                                                                                                    
                                                                                                    
                                                                                                    
                                                                                                    
                                                                                                    
                                                                                                    
                                                                                                    
                                                                                                    
                                                                                                    
                           
<?xpacket end="w"?></metadata>
<defs>
    <style>
      .cls-1 {
        fill: #d8d8d8;
        fill-rule: evenodd;
      }
    </style>
  </defs>
  <path id="_-e-In" data-name="-e-In" class="cls-1" d="M1108,2362h-23a2.006,2.006,0,0,1-2-2v-21a2.006,2.006,0,0,1,2-2h5.5a1.5,1.5,0,0,1,0,3H1086v19h21v-19h-4.5a1.5,1.5,0,0,1,0-3h5.5a2.006,2.006,0,0,1,2,2v21A2.006,2.006,0,0,1,1108,2362Zm-5-15.5a1.505,1.505,0,0,1-.44,1.06l-5,5a1.5,1.5,0,0,1-2.12,0l-5-5a1.5,1.5,0,1,1,2.12-2.12l2.44,2.44V2331.5a1.5,1.5,0,0,1,3,0v16.38l2.44-2.44A1.5,1.5,0,0,1,1103,2346.5Z" transform="translate(-1083 -2330)"/>
</svg>
