<svg xmlns="http://www.w3.org/2000/svg" width="48" height="64" viewBox="0 0 24 32">
  <metadata><?xpacket begin="﻿" id="W5M0MpCehiHzreSzNTczkc9d"?>
<x:xmpmeta xmlns:x="adobe:ns:meta/" x:xmptk="Adobe XMP Core 5.6-c142 79.160924, 2017/07/13-01:06:39        ">
   <rdf:RDF xmlns:rdf="http://www.w3.org/1999/02/22-rdf-syntax-ns#">
      <rdf:Description rdf:about=""/>
   </rdf:RDF>
</x:xmpmeta>
                                                                                                    
                                                                                                    
                                                                                                    
                                                                                                    
                                                                                                    
                                                                                                    
                                                                                                    
                                                                                                    
                                                                                                    
                                                                                                    
                                                                                                    
                                                                                                    
                                                                                                    
                                                                                                    
                                                                                                    
                                                                                                    
                                                                                                    
                                                                                                    
                                                                                                    
                                                                                                    
                           
<?xpacket end="w"?></metadata>
<defs>
    <style>
      .cls-1 {
        fill: #dbdbdb;
        fill-rule: evenodd;
      }
    </style>
  </defs>
  <path id="Pin" class="cls-1" d="M22.085,18.506L14.1,30.855a2.5,2.5,0,0,1-4.2,0L1.915,18.506A12,12,0,1,1,22.085,18.506ZM12,3A9,9,0,0,0,4.435,16.878L12,28.58l7.566-11.7A9,9,0,0,0,12,3Zm0,14a5,5,0,1,1,5-5A5,5,0,0,1,12,17Zm0-7a2,2,0,1,0,2,2A2,2,0,0,0,12,10Z"/>
</svg>
